<svg t="1730082617992" class="icon" viewBox="0 0 1024 1024" version="1.1" xmlns="http://www.w3.org/2000/svg" p-id="60469" width="32" height="32"><path d="M565.503893 517.528565l-0.0512-1.023998a194.406011 194.406011 0 0 1-56.217487 115.506969l-0.256 0.255999a198.502003 198.502003 0 0 1-279.039442-0.102399 194.81561 194.81561 0 0 1 0-277.093846 389.78482 389.78482 0 0 0-86.476627 425.16395 291.839416 291.839416 0 0 0 135.27013 30.719938c160.818878-2.457595 289.279421-133.785332 286.719426-293.375413z m222.821954-162.457275a393.932012 393.932012 0 0 0-48.947102-41.164718 394.95601 394.95601 0 0 0-101.375797-52.735894 196.249208 196.249208 0 0 1-128.921342-115.19977 195.17401 195.17401 0 0 1 0-145.919708 194.713211 194.713211 0 0 0-86.271828 249.8555c9.471981 21.657557 23.039954 42.035116 40.806319 59.85268l-0.1024 0.1024 46.079908 45.823909c3.839992 3.788792 7.270385 7.782384 10.700778 11.775976l-1.023998-1.638397a318.975362 318.975362 0 0 1 88.217424 215.551569c2.764794 177.407645-139.98052 323.480953-318.821762 326.194548a325.631349 325.631349 0 0 1-65.689469-5.631989c2.303995 2.406395 4.607991 4.91519 6.963186 7.270386A394.90481 394.90481 0 0 0 509.132806 1023.997952a395.16081 395.16081 0 0 0 279.193041-114.738971 390.808818 390.808818 0 0 0 115.711769-277.042645 389.016822 389.016822 0 0 0-115.711769-277.042646v-0.1024z" fill="#9F9F9F" p-id="60470"></path></svg>